<svg width="124" height="28" viewBox="0 0 124 28" fill="none" xmlns="http://www.w3.org/2000/svg">
<path fill-rule="evenodd" clip-rule="evenodd" d="M27.9999 7C27.9999 10.866 24.8659 14 20.9999 14C17.1339 14 13.9999 10.866 13.9999 7C13.9999 3.134 17.1339 0 20.9999 0C24.8659 0 27.9999 3.134 27.9999 7ZM20.9429 2.91675H21.0564C21.3762 4.98746 23.0123 6.62358 25.083 6.94333V7.05684C23.0123 7.37658 21.3762 9.01271 21.0564 11.0834H20.9429C20.6232 9.01271 18.9871 7.37658 16.9163 7.05684V6.94333C18.9871 6.62358 20.6232 4.98746 20.9429 2.91675Z" fill="#97025E"/>
<path d="M14 7C14 10.435 11.5258 13.2922 8.26224 13.8865C8.20728 13.8965 8.16667 13.9441 8.16667 14C8.16667 14.0559 8.20724 14.1035 8.2622 14.1135C11.1163 14.6332 13.3668 16.8837 13.8865 19.7378C13.8965 19.7928 13.9441 19.8333 14 19.8333C14.0559 19.8333 14.1035 19.7927 14.1135 19.7378C14.7078 16.4742 17.565 14 21 14C24.866 14 28 17.134 28 21C28 24.866 24.866 28 21 28C17.565 28 14.7078 25.5258 14.1135 22.2622C14.1035 22.2073 14.0559 22.1667 14 22.1667C13.9441 22.1667 13.8965 22.2073 13.8865 22.2622C13.2922 25.5258 10.435 28 7 28C3.134 28 0 24.866 0 21C0 17.565 2.47424 14.7078 5.73776 14.1135C5.79272 14.1035 5.83333 14.0559 5.83333 14C5.83333 13.9441 5.79272 13.8965 5.73776 13.8865C2.47424 13.2922 0 10.435 0 7C0 3.134 3.134 0 7 0C10.866 0 14 3.134 14 7Z" fill="#FE4C5C"/>
<path d="M114.91 23.055C109.219 23.055 106.321 20.3457 106.321 14.6493V5.06259H112.082V14.6493C112.082 17.3585 113.249 18.1574 114.91 18.1574C116.572 18.1574 117.738 17.3585 117.738 14.6493V5.06259H123.5V14.6493C123.5 20.3457 120.601 23.055 114.91 23.055Z" fill="#97025E"/>
<path d="M97.9766 4.75C102.36 4.75 104.163 7.49401 104.163 12.6347V22.7424H98.4008V13.0515C98.4008 10.377 97.4464 9.43914 95.8911 9.43914C94.3004 9.43914 93.346 10.4812 93.346 13.0862V22.7424H87.549V13.0515C87.549 10.377 86.6299 9.43914 85.0746 9.43914C83.4486 9.43914 82.5295 10.4812 82.5295 13.0862V22.7424H76.7325V8.81392L76.2022 5.06261H81.7165L82.2114 7.38981C83.3425 5.61836 85.0746 4.75 87.3015 4.75C89.8819 4.75 91.5786 5.79203 92.4977 7.77189C93.6288 5.79203 95.5023 4.75 97.9766 4.75Z" fill="#97025E"/>
<path d="M73.5497 18.9216L74.0799 22.7424H68.5656L68.0001 20.1026C66.7629 22.0477 64.8187 23.055 62.2737 23.055C57.1836 23.055 54.4618 19.3384 54.4618 13.8851C54.4618 8.50131 57.1836 4.75 62.2737 4.75C64.7834 4.75 66.7629 5.72256 68.0001 7.63295L68.5303 5.06261H73.5497V18.9216ZM64.0057 18.3659C66.4447 18.3659 67.7526 16.7681 67.7526 13.8851C67.7526 11.0717 66.4447 9.43914 64.0057 9.43914C61.6021 9.43914 60.2942 11.0717 60.2942 13.8851C60.2942 16.7681 61.6021 18.3659 64.0057 18.3659Z" fill="#97025E"/>
<path d="M43.5439 23.055C37.2166 23.055 33.9999 19.269 33.9999 13.8851C33.9999 8.53604 37.2166 4.75 43.5439 4.75C49.1996 4.75 52.3809 7.77189 53.0172 12.2179H47.2201C46.7606 10.4464 45.5587 9.43914 43.6146 9.43914C41.0695 9.43914 39.8323 11.0717 39.8323 13.8851C39.8323 16.7681 41.0695 18.3659 43.6146 18.3659C45.5941 18.3659 46.7606 17.3586 47.2201 15.5524H53.0172C52.4162 20.0331 49.2349 23.055 43.5439 23.055Z" fill="#97025E"/>
</svg>
